<svg xmlns="http://www.w3.org/2000/svg" viewBox="0 0 128 128" role="img" aria-label="Movies icon">
  <defs>
    <linearGradient id="g" x1="0" y1="0" x2="1" y2="1">
      <stop offset="0" stop-color="#22c55e"/>
      <stop offset="1" stop-color="#0ea5e9"/>
    </linearGradient>
  </defs>
  <rect x="12" y="18" width="104" height="92" rx="14" fill="#0f172a"/>
  <rect x="18" y="24" width="92" height="20" rx="10" fill="url(#g)"/>
  <g fill="#0f172a" opacity="0.9">
    <rect x="22" y="28" width="10" height="12" rx="3"/>
    <rect x="38" y="28" width="10" height="12" rx="3"/>
    <rect x="54" y="28" width="10" height="12" rx="3"/>
    <rect x="70" y="28" width="10" height="12" rx="3"/>
    <rect x="86" y="28" width="10" height="12" rx="3"/>
  </g>
  <rect x="22" y="52" width="84" height="48" rx="10" fill="#111827"/>
  <path d="M58 66v20a2 2 0 0 0 3.2 1.6l14-10a2 2 0 0 0 0-3.2l-14-10A2 2 0 0 0 58 66z" fill="#e2e8f0"/>
</svg>

